<?xml version="1.0" encoding="UTF-8" standalone="no"?>
<!DOCTYPE svg PUBLIC "-//W3C//DTD SVG 1.1//EN"
 "http://www.w3.org/Graphics/SVG/1.1/DTD/svg11.dtd">
<!-- Generated by graphviz version 12.0.0 (20240704.0754)
 -->
<!-- Title: PopulationGatedRNN_detailed Pages: 1 -->
<svg width="318pt" height="1080pt"
 viewBox="0.00 0.00 190.55 648.00" xmlns="http://www.w3.org/2000/svg" xmlns:xlink="http://www.w3.org/1999/xlink">
<g id="graph0" class="graph" transform="scale(0.629646 0.629646) rotate(0) translate(4 1711.25)">
<title>PopulationGatedRNN_detailed</title>
<polygon fill="white" stroke="none" points="-4,4 -4,-1711.25 500.38,-1711.25 500.38,4 -4,4"/>
<g id="clust1" class="cluster">
<title>cluster_input</title>
<path fill="none" stroke="#93c5fd" d="M95.38,-1349.5C95.38,-1349.5 177.38,-1349.5 177.38,-1349.5 183.38,-1349.5 189.38,-1355.5 189.38,-1361.5 189.38,-1361.5 189.38,-1559.25 189.38,-1559.25 189.38,-1565.25 183.38,-1571.25 177.38,-1571.25 177.38,-1571.25 95.38,-1571.25 95.38,-1571.25 89.38,-1571.25 83.38,-1565.25 83.38,-1559.25 83.38,-1559.25 83.38,-1361.5 83.38,-1361.5 83.38,-1355.5 89.38,-1349.5 95.38,-1349.5"/>
<text text-anchor="middle" x="136.38" y="-1553.95" font-family="Times New Roman,serif" font-size="14.00">Input block</text>
</g>
<g id="clust2" class="cluster">
<title>cluster_grnn_1</title>
<path fill="none" stroke="#a7f3d0" d="M50.38,-952.5C50.38,-952.5 476.38,-952.5 476.38,-952.5 482.38,-952.5 488.38,-958.5 488.38,-964.5 488.38,-964.5 488.38,-1235.25 488.38,-1235.25 488.38,-1241.25 482.38,-1247.25 476.38,-1247.25 476.38,-1247.25 50.38,-1247.25 50.38,-1247.25 44.38,-1247.25 38.38,-1241.25 38.38,-1235.25 38.38,-1235.25 38.38,-964.5 38.38,-964.5 38.38,-958.5 44.38,-952.5 50.38,-952.5"/>
<text text-anchor="middle" x="263.38" y="-1229.95" font-family="Times New Roman,serif" font-size="14.00">GatedRNNCell L1</text>
</g>
<g id="clust3" class="cluster">
<title>cluster_grnn_2</title>
<path fill="none" stroke="#a7f3d0" d="M50.38,-545.25C50.38,-545.25 476.38,-545.25 476.38,-545.25 482.38,-545.25 488.38,-551.25 488.38,-557.25 488.38,-557.25 488.38,-828 488.38,-828 488.38,-834 482.38,-840 476.38,-840 476.38,-840 50.38,-840 50.38,-840 44.38,-840 38.38,-834 38.38,-828 38.38,-828 38.38,-557.25 38.38,-557.25 38.38,-551.25 44.38,-545.25 50.38,-545.25"/>
<text text-anchor="middle" x="263.38" y="-822.7" font-family="Times New Roman,serif" font-size="14.00">GatedRNNCell L2</text>
</g>
<g id="clust4" class="cluster">
<title>cluster_output</title>
<path fill="none" stroke="#93c5fd" d="M112.38,-221.25C112.38,-221.25 194.38,-221.25 194.38,-221.25 200.38,-221.25 206.38,-227.25 206.38,-233.25 206.38,-233.25 206.38,-431 206.38,-431 206.38,-437 200.38,-443 194.38,-443 194.38,-443 112.38,-443 112.38,-443 106.38,-443 100.38,-437 100.38,-431 100.38,-431 100.38,-233.25 100.38,-233.25 100.38,-227.25 106.38,-221.25 112.38,-221.25"/>
<text text-anchor="middle" x="153.38" y="-425.7" font-family="Times New Roman,serif" font-size="14.00">Output block</text>
</g>
<!-- y -->
<g id="node1" class="node">
<title>y</title>
<polygon fill="#eff6ff" stroke="#374151" points="136.75,-1707.25 133.75,-1711.25 112.75,-1711.25 109.75,-1707.25 0,-1707.25 0,-1671.25 136.75,-1671.25 136.75,-1707.25"/>
<text text-anchor="middle" x="68.38" y="-1685.17" font-family="Helvetica,sans-Serif" font-size="11.00">y ∈ ℝ⁴ (4 biomarkers)</text>
</g>
<!-- concat_z -->
<g id="node3" class="node">
<title>concat_z</title>
<path fill="#f3f4f6" stroke="#374151" d="M196.5,-1634.25C196.5,-1634.25 76.25,-1634.25 76.25,-1634.25 70.25,-1634.25 64.25,-1628.25 64.25,-1622.25 64.25,-1622.25 64.25,-1610.25 64.25,-1610.25 64.25,-1604.25 70.25,-1598.25 76.25,-1598.25 76.25,-1598.25 196.5,-1598.25 196.5,-1598.25 202.5,-1598.25 208.5,-1604.25 208.5,-1610.25 208.5,-1610.25 208.5,-1622.25 208.5,-1622.25 208.5,-1628.25 202.5,-1634.25 196.5,-1634.25"/>
<text text-anchor="middle" x="136.38" y="-1612.17" font-family="Helvetica,sans-Serif" font-size="11.00">concat([y, s]) → z ∈ ℝ⁵</text>
</g>
<!-- y&#45;&gt;concat_z -->
<g id="edge1" class="edge">
<title>y&#45;&gt;concat_z</title>
<path fill="none" stroke="black" d="M84.84,-1671.06C93.02,-1662.52 103.07,-1652.02 112.12,-1642.57"/>
<polygon fill="black" stroke="black" points="114.63,-1645.01 119.02,-1635.37 109.57,-1640.17 114.63,-1645.01"/>
</g>
<!-- ode -->
<g id="node38" class="node">
<title>ode</title>
<path fill="#ede9fe" stroke="#374151" d="M237,-119.25C237,-119.25 23.75,-119.25 23.75,-119.25 17.75,-119.25 11.75,-113.25 11.75,-107.25 11.75,-107.25 11.75,-85 11.75,-85 11.75,-79 17.75,-73 23.75,-73 23.75,-73 237,-73 237,-73 243,-73 249,-79 249,-85 249,-85 249,-107.25 249,-107.25 249,-113.25 243,-119.25 237,-119.25"/>
<text text-anchor="middle" x="130.38" y="-104.8" font-family="Helvetica,sans-Serif" font-size="11.00">ODE dynamics:</text>
<text text-anchor="middle" x="130.38" y="-92.05" font-family="Helvetica,sans-Serif" font-size="11.00">f(y,s) = 1e&#45;2 · σ(y) · (A − σ(y)) · net_output</text>
<text text-anchor="middle" x="130.38" y="-79.3" font-family="Helvetica,sans-Serif" font-size="11.00">其中 σ 为 Sigmoid，逐分量作用于 y</text>
</g>
<!-- y&#45;&gt;ode -->
<g id="edge41" class="edge">
<title>y&#45;&gt;ode</title>
<path fill="none" stroke="black" d="M43.98,-1670.99C28.88,-1658.13 12.38,-1639.07 12.38,-1617.25 12.38,-1617.25 12.38,-1617.25 12.38,-1160.5 12.38,-947.5 12.38,-894.25 12.38,-681.25 12.38,-681.25 12.38,-681.25 12.38,-173.25 12.38,-152.07 25.96,-136.5 43.91,-125.17"/>
<polygon fill="black" stroke="black" points="45.37,-128.37 52.33,-120.38 41.91,-122.29 45.37,-128.37"/>
<text text-anchor="middle" x="20.62" y="-891.38" font-family="Times New Roman,serif" font-size="10.00">σ(y)</text>
</g>
<!-- s -->
<g id="node2" class="node">
<title>s</title>
<polygon fill="#eff6ff" stroke="#374151" points="262.25,-1707.25 259.25,-1711.25 238.25,-1711.25 235.25,-1707.25 158.5,-1707.25 158.5,-1671.25 262.25,-1671.25 262.25,-1707.25"/>
<text text-anchor="middle" x="210.38" y="-1685.17" font-family="Helvetica,sans-Serif" font-size="11.00">s ∈ ℝ¹ (scalar)</text>
</g>
<!-- s&#45;&gt;concat_z -->
<g id="edge2" class="edge">
<title>s&#45;&gt;concat_z</title>
<path fill="none" stroke="black" d="M192.46,-1671.06C183.53,-1662.49 172.55,-1651.96 162.69,-1642.49"/>
<polygon fill="black" stroke="black" points="165.11,-1639.97 155.47,-1635.57 160.26,-1645.02 165.11,-1639.97"/>
</g>
<!-- lin_in -->
<g id="node4" class="node">
<title>lin_in</title>
<path fill="#e0f2fe" stroke="#374151" d="M168.75,-1539.5C168.75,-1539.5 104,-1539.5 104,-1539.5 98,-1539.5 92,-1533.5 92,-1527.5 92,-1527.5 92,-1515.5 92,-1515.5 92,-1509.5 98,-1503.5 104,-1503.5 104,-1503.5 168.75,-1503.5 168.75,-1503.5 174.75,-1503.5 180.75,-1509.5 180.75,-1515.5 180.75,-1515.5 180.75,-1527.5 180.75,-1527.5 180.75,-1533.5 174.75,-1539.5 168.75,-1539.5"/>
<text text-anchor="middle" x="136.38" y="-1517.42" font-family="Helvetica,sans-Serif" font-size="11.00">Linear(5 → 32)</text>
</g>
<!-- concat_z&#45;&gt;lin_in -->
<g id="edge5" class="edge">
<title>concat_z&#45;&gt;lin_in</title>
<path fill="none" stroke="black" d="M136.38,-1597.8C136.38,-1584.72 136.38,-1566.52 136.38,-1551.29"/>
<polygon fill="black" stroke="black" points="139.88,-1551.38 136.38,-1541.38 132.88,-1551.38 139.88,-1551.38"/>
</g>
<!-- act_in -->
<g id="node5" class="node">
<title>act_in</title>
<path fill="#e0f2fe" stroke="#374151" d="M151.38,-1466.5C151.38,-1466.5 121.38,-1466.5 121.38,-1466.5 115.38,-1466.5 109.38,-1460.5 109.38,-1454.5 109.38,-1454.5 109.38,-1442.5 109.38,-1442.5 109.38,-1436.5 115.38,-1430.5 121.38,-1430.5 121.38,-1430.5 151.38,-1430.5 151.38,-1430.5 157.38,-1430.5 163.38,-1436.5 163.38,-1442.5 163.38,-1442.5 163.38,-1454.5 163.38,-1454.5 163.38,-1460.5 157.38,-1466.5 151.38,-1466.5"/>
<text text-anchor="middle" x="136.38" y="-1444.42" font-family="Helvetica,sans-Serif" font-size="11.00">Tanh</text>
</g>
<!-- lin_in&#45;&gt;act_in -->
<g id="edge3" class="edge">
<title>lin_in&#45;&gt;act_in</title>
<path fill="none" stroke="black" d="M136.38,-1503.31C136.38,-1495.73 136.38,-1486.6 136.38,-1478.04"/>
<polygon fill="black" stroke="black" points="139.88,-1478.04 136.38,-1468.04 132.88,-1478.04 139.88,-1478.04"/>
</g>
<!-- drop_in -->
<g id="node6" class="node">
<title>drop_in</title>
<path fill="#e0f2fe" stroke="#374151" d="M169.5,-1393.5C169.5,-1393.5 103.25,-1393.5 103.25,-1393.5 97.25,-1393.5 91.25,-1387.5 91.25,-1381.5 91.25,-1381.5 91.25,-1369.5 91.25,-1369.5 91.25,-1363.5 97.25,-1357.5 103.25,-1357.5 103.25,-1357.5 169.5,-1357.5 169.5,-1357.5 175.5,-1357.5 181.5,-1363.5 181.5,-1369.5 181.5,-1369.5 181.5,-1381.5 181.5,-1381.5 181.5,-1387.5 175.5,-1393.5 169.5,-1393.5"/>
<text text-anchor="middle" x="136.38" y="-1371.42" font-family="Helvetica,sans-Serif" font-size="11.00">Dropout(p=0.1)</text>
</g>
<!-- act_in&#45;&gt;drop_in -->
<g id="edge4" class="edge">
<title>act_in&#45;&gt;drop_in</title>
<path fill="none" stroke="black" d="M136.38,-1430.31C136.38,-1422.73 136.38,-1413.6 136.38,-1405.04"/>
<polygon fill="black" stroke="black" points="139.88,-1405.04 136.38,-1395.04 132.88,-1405.04 139.88,-1405.04"/>
</g>
<!-- x0 -->
<g id="node7" class="node">
<title>x0</title>
<polygon fill="#fef3c7" stroke="#374151" points="178.88,-1320.5 87.88,-1320.5 87.88,-1284.5 184.88,-1284.5 184.88,-1314.5 178.88,-1320.5"/>
<polyline fill="none" stroke="#374151" points="178.88,-1320.5 178.88,-1314.5"/>
<polyline fill="none" stroke="#374151" points="184.88,-1314.5 178.88,-1314.5"/>
<text text-anchor="middle" x="136.38" y="-1298.42" font-family="Helvetica,sans-Serif" font-size="11.00">x₀ ∈ ℝ¹×32</text>
</g>
<!-- drop_in&#45;&gt;x0 -->
<g id="edge6" class="edge">
<title>drop_in&#45;&gt;x0</title>
<path fill="none" stroke="black" d="M136.38,-1357.31C136.38,-1349.73 136.38,-1340.6 136.38,-1332.04"/>
<polygon fill="black" stroke="black" points="139.88,-1332.04 136.38,-1322.04 132.88,-1332.04 139.88,-1332.04"/>
</g>
<!-- concat_1 -->
<g id="node9" class="node">
<title>concat_1</title>
<path fill="#ecfdf5" stroke="#374151" d="M213.75,-1215.5C213.75,-1215.5 95,-1215.5 95,-1215.5 89,-1215.5 83,-1209.5 83,-1203.5 83,-1203.5 83,-1191.5 83,-1191.5 83,-1185.5 89,-1179.5 95,-1179.5 95,-1179.5 213.75,-1179.5 213.75,-1179.5 219.75,-1179.5 225.75,-1185.5 225.75,-1191.5 225.75,-1191.5 225.75,-1203.5 225.75,-1203.5 225.75,-1209.5 219.75,-1215.5 213.75,-1215.5"/>
<text text-anchor="middle" x="154.38" y="-1199.8" font-family="Helvetica,sans-Serif" font-size="11.00">concat(x, h) ∈ ℝ¹×(2H)</text>
<text text-anchor="middle" x="154.38" y="-1187.05" font-family="Helvetica,sans-Serif" font-size="11.00">(此处 H=32)</text>
</g>
<!-- x0&#45;&gt;concat_1 -->
<g id="edge11" class="edge">
<title>x0&#45;&gt;concat_1</title>
<path fill="none" stroke="black" d="M139.43,-1284.03C142.16,-1268.4 146.21,-1245.19 149.41,-1226.9"/>
<polygon fill="black" stroke="black" points="152.83,-1227.66 151.11,-1217.21 145.94,-1226.45 152.83,-1227.66"/>
<text text-anchor="middle" x="145.25" y="-1257" font-family="Times New Roman,serif" font-size="10.00">x</text>
</g>
<!-- h0 -->
<g id="node8" class="node">
<title>h0</title>
<polygon fill="#fef3c7" stroke="#374151" points="310.25,-1320.5 206.5,-1320.5 206.5,-1284.5 316.25,-1284.5 316.25,-1314.5 310.25,-1320.5"/>
<polyline fill="none" stroke="#374151" points="310.25,-1320.5 310.25,-1314.5"/>
<polyline fill="none" stroke="#374151" points="316.25,-1314.5 310.25,-1314.5"/>
<text text-anchor="middle" x="261.38" y="-1298.42" font-family="Helvetica,sans-Serif" font-size="11.00">h₀ = zeros(1, 32)</text>
</g>
<!-- h0&#45;&gt;concat_1 -->
<g id="edge12" class="edge">
<title>h0&#45;&gt;concat_1</title>
<path fill="none" stroke="black" d="M243.22,-1284.03C225.98,-1267.43 199.87,-1242.29 180.41,-1223.56"/>
<polygon fill="black" stroke="black" points="182.98,-1221.18 173.35,-1216.76 178.13,-1226.22 182.98,-1221.18"/>
<text text-anchor="middle" x="226" y="-1257" font-family="Times New Roman,serif" font-size="10.00">h</text>
</g>
<!-- lin_i_1 -->
<g id="node10" class="node">
<title>lin_i_1</title>
<path fill="#d1fae5" stroke="#374151" d="M126.25,-1142.5C126.25,-1142.5 58.5,-1142.5 58.5,-1142.5 52.5,-1142.5 46.5,-1136.5 46.5,-1130.5 46.5,-1130.5 46.5,-1118.5 46.5,-1118.5 46.5,-1112.5 52.5,-1106.5 58.5,-1106.5 58.5,-1106.5 126.25,-1106.5 126.25,-1106.5 132.25,-1106.5 138.25,-1112.5 138.25,-1118.5 138.25,-1118.5 138.25,-1130.5 138.25,-1130.5 138.25,-1136.5 132.25,-1142.5 126.25,-1142.5"/>
<text text-anchor="middle" x="92.38" y="-1120.42" font-family="Helvetica,sans-Serif" font-size="11.00">Linear(2H → H)</text>
</g>
<!-- concat_1&#45;&gt;lin_i_1 -->
<g id="edge13" class="edge">
<title>concat_1&#45;&gt;lin_i_1</title>
<path fill="none" stroke="black" d="M139.37,-1179.31C131.98,-1170.85 122.92,-1160.48 114.74,-1151.11"/>
<polygon fill="black" stroke="black" points="117.45,-1148.9 108.24,-1143.67 112.18,-1153.5 117.45,-1148.9"/>
</g>
<!-- lin_f_1 -->
<g id="node12" class="node">
<title>lin_f_1</title>
<path fill="#d1fae5" stroke="#374151" d="M240.25,-1142.5C240.25,-1142.5 172.5,-1142.5 172.5,-1142.5 166.5,-1142.5 160.5,-1136.5 160.5,-1130.5 160.5,-1130.5 160.5,-1118.5 160.5,-1118.5 160.5,-1112.5 166.5,-1106.5 172.5,-1106.5 172.5,-1106.5 240.25,-1106.5 240.25,-1106.5 246.25,-1106.5 252.25,-1112.5 252.25,-1118.5 252.25,-1118.5 252.25,-1130.5 252.25,-1130.5 252.25,-1136.5 246.25,-1142.5 240.25,-1142.5"/>
<text text-anchor="middle" x="206.38" y="-1120.42" font-family="Helvetica,sans-Serif" font-size="11.00">Linear(2H → H)</text>
</g>
<!-- concat_1&#45;&gt;lin_f_1 -->
<g id="edge14" class="edge">
<title>concat_1&#45;&gt;lin_f_1</title>
<path fill="none" stroke="black" d="M166.96,-1179.31C173.03,-1171.03 180.44,-1160.91 187.19,-1151.69"/>
<polygon fill="black" stroke="black" points="189.92,-1153.89 193.01,-1143.75 184.28,-1149.75 189.92,-1153.89"/>
</g>
<!-- lin_c_1 -->
<g id="node14" class="node">
<title>lin_c_1</title>
<path fill="#d1fae5" stroke="#374151" d="M354.25,-1142.5C354.25,-1142.5 286.5,-1142.5 286.5,-1142.5 280.5,-1142.5 274.5,-1136.5 274.5,-1130.5 274.5,-1130.5 274.5,-1118.5 274.5,-1118.5 274.5,-1112.5 280.5,-1106.5 286.5,-1106.5 286.5,-1106.5 354.25,-1106.5 354.25,-1106.5 360.25,-1106.5 366.25,-1112.5 366.25,-1118.5 366.25,-1118.5 366.25,-1130.5 366.25,-1130.5 366.25,-1136.5 360.25,-1142.5 354.25,-1142.5"/>
<text text-anchor="middle" x="320.38" y="-1120.42" font-family="Helvetica,sans-Serif" font-size="11.00">Linear(2H → H)</text>
</g>
<!-- concat_1&#45;&gt;lin_c_1 -->
<g id="edge15" class="edge">
<title>concat_1&#45;&gt;lin_c_1</title>
<path fill="none" stroke="black" d="M194.98,-1179.13C217.39,-1169.55 245.43,-1157.55 269.31,-1147.34"/>
<polygon fill="black" stroke="black" points="270.4,-1150.68 278.22,-1143.53 267.65,-1144.25 270.4,-1150.68"/>
</g>
<!-- lin_o_1 -->
<g id="node16" class="node">
<title>lin_o_1</title>
<path fill="#d1fae5" stroke="#374151" d="M468.25,-1142.5C468.25,-1142.5 400.5,-1142.5 400.5,-1142.5 394.5,-1142.5 388.5,-1136.5 388.5,-1130.5 388.5,-1130.5 388.5,-1118.5 388.5,-1118.5 388.5,-1112.5 394.5,-1106.5 400.5,-1106.5 400.5,-1106.5 468.25,-1106.5 468.25,-1106.5 474.25,-1106.5 480.25,-1112.5 480.25,-1118.5 480.25,-1118.5 480.25,-1130.5 480.25,-1130.5 480.25,-1136.5 474.25,-1142.5 468.25,-1142.5"/>
<text text-anchor="middle" x="434.38" y="-1120.42" font-family="Helvetica,sans-Serif" font-size="11.00">Linear(2H → H)</text>
</g>
<!-- concat_1&#45;&gt;lin_o_1 -->
<g id="edge16" class="edge">
<title>concat_1&#45;&gt;lin_o_1</title>
<path fill="none" stroke="black" d="M226.17,-1180.12C267.35,-1170.49 320.23,-1157.73 377.05,-1142.5"/>
<polygon fill="black" stroke="black" points="377.88,-1145.9 386.62,-1139.92 376.05,-1139.15 377.88,-1145.9"/>
</g>
<!-- sig_i_1 -->
<g id="node11" class="node">
<title>sig_i_1</title>
<path fill="#d1fae5" stroke="#374151" d="M127.5,-1069.5C127.5,-1069.5 67.25,-1069.5 67.25,-1069.5 61.25,-1069.5 55.25,-1063.5 55.25,-1057.5 55.25,-1057.5 55.25,-1045.5 55.25,-1045.5 55.25,-1039.5 61.25,-1033.5 67.25,-1033.5 67.25,-1033.5 127.5,-1033.5 127.5,-1033.5 133.5,-1033.5 139.5,-1039.5 139.5,-1045.5 139.5,-1045.5 139.5,-1057.5 139.5,-1057.5 139.5,-1063.5 133.5,-1069.5 127.5,-1069.5"/>
<text text-anchor="middle" x="97.38" y="-1047.42" font-family="Helvetica,sans-Serif" font-size="11.00">Sigmoid → i_t</text>
</g>
<!-- lin_i_1&#45;&gt;sig_i_1 -->
<g id="edge7" class="edge">
<title>lin_i_1&#45;&gt;sig_i_1</title>
<path fill="none" stroke="black" d="M93.59,-1106.31C94.13,-1098.64 94.78,-1089.39 95.39,-1080.74"/>
<polygon fill="black" stroke="black" points="98.86,-1081.26 96.07,-1071.04 91.88,-1080.77 98.86,-1081.26"/>
</g>
<!-- update_1 -->
<g id="node18" class="node">
<title>update_1</title>
<path fill="#ecfdf5" stroke="#374151" d="M302.12,-996.5C302.12,-996.5 110.62,-996.5 110.62,-996.5 104.62,-996.5 98.62,-990.5 98.62,-984.5 98.62,-984.5 98.62,-972.5 98.62,-972.5 98.62,-966.5 104.62,-960.5 110.62,-960.5 110.62,-960.5 302.12,-960.5 302.12,-960.5 308.12,-960.5 314.12,-966.5 314.12,-972.5 314.12,-972.5 314.12,-984.5 314.12,-984.5 314.12,-990.5 308.12,-996.5 302.12,-996.5"/>
<text text-anchor="middle" x="206.38" y="-980.8" font-family="Helvetica,sans-Serif" font-size="11.00">更新：h_t = o_t ⊙ tanh(c̃_t)</text>
<text text-anchor="middle" x="206.38" y="-968.05" font-family="Helvetica,sans-Serif" font-size="11.00">(i_t, f_t 在当前实现中未参与 h_t)</text>
</g>
<!-- sig_i_1&#45;&gt;update_1 -->
<g id="edge19" class="edge">
<title>sig_i_1&#45;&gt;update_1</title>
<path fill="none" stroke="#9ca3af" stroke-dasharray="5,2" d="M124.04,-1033.13C137.9,-1024.11 155.03,-1012.94 170.08,-1003.14"/>
<polygon fill="#9ca3af" stroke="#9ca3af" points="171.87,-1006.15 178.34,-997.76 168.05,-1000.29 171.87,-1006.15"/>
</g>
<!-- sig_f_1 -->
<g id="node13" class="node">
<title>sig_f_1</title>
<path fill="#d1fae5" stroke="#374151" d="M236.87,-1069.5C236.87,-1069.5 175.88,-1069.5 175.88,-1069.5 169.88,-1069.5 163.88,-1063.5 163.88,-1057.5 163.88,-1057.5 163.88,-1045.5 163.88,-1045.5 163.88,-1039.5 169.88,-1033.5 175.88,-1033.5 175.88,-1033.5 236.87,-1033.5 236.87,-1033.5 242.87,-1033.5 248.87,-1039.5 248.87,-1045.5 248.87,-1045.5 248.87,-1057.5 248.87,-1057.5 248.87,-1063.5 242.87,-1069.5 236.87,-1069.5"/>
<text text-anchor="middle" x="206.38" y="-1047.42" font-family="Helvetica,sans-Serif" font-size="11.00">Sigmoid → f_t</text>
</g>
<!-- lin_f_1&#45;&gt;sig_f_1 -->
<g id="edge8" class="edge">
<title>lin_f_1&#45;&gt;sig_f_1</title>
<path fill="none" stroke="black" d="M206.38,-1106.31C206.38,-1098.73 206.38,-1089.6 206.38,-1081.04"/>
<polygon fill="black" stroke="black" points="209.88,-1081.04 206.38,-1071.04 202.88,-1081.04 209.88,-1081.04"/>
</g>
<!-- sig_f_1&#45;&gt;update_1 -->
<g id="edge20" class="edge">
<title>sig_f_1&#45;&gt;update_1</title>
<path fill="none" stroke="#9ca3af" stroke-dasharray="5,2" d="M206.38,-1033.31C206.38,-1025.73 206.38,-1016.6 206.38,-1008.04"/>
<polygon fill="#9ca3af" stroke="#9ca3af" points="209.88,-1008.04 206.38,-998.04 202.88,-1008.04 209.88,-1008.04"/>
</g>
<!-- tanh_c_1 -->
<g id="node15" class="node">
<title>tanh_c_1</title>
<path fill="#d1fae5" stroke="#374151" d="M337.25,-1069.5C337.25,-1069.5 289.5,-1069.5 289.5,-1069.5 283.5,-1069.5 277.5,-1063.5 277.5,-1057.5 277.5,-1057.5 277.5,-1045.5 277.5,-1045.5 277.5,-1039.5 283.5,-1033.5 289.5,-1033.5 289.5,-1033.5 337.25,-1033.5 337.25,-1033.5 343.25,-1033.5 349.25,-1039.5 349.25,-1045.5 349.25,-1045.5 349.25,-1057.5 349.25,-1057.5 349.25,-1063.5 343.25,-1069.5 337.25,-1069.5"/>
<text text-anchor="middle" x="313.38" y="-1047.42" font-family="Helvetica,sans-Serif" font-size="11.00">Tanh → c̃_t</text>
</g>
<!-- lin_c_1&#45;&gt;tanh_c_1 -->
<g id="edge9" class="edge">
<title>lin_c_1&#45;&gt;tanh_c_1</title>
<path fill="none" stroke="black" d="M318.68,-1106.31C317.92,-1098.64 317.01,-1089.39 316.16,-1080.74"/>
<polygon fill="black" stroke="black" points="319.67,-1080.64 315.2,-1071.04 312.7,-1081.33 319.67,-1080.64"/>
</g>
<!-- tanh_c_1&#45;&gt;update_1 -->
<g id="edge17" class="edge">
<title>tanh_c_1&#45;&gt;update_1</title>
<path fill="none" stroke="black" d="M287.2,-1033.13C273.6,-1024.11 256.78,-1012.94 242.01,-1003.14"/>
<polygon fill="black" stroke="black" points="244.18,-1000.38 233.91,-997.77 240.31,-1006.22 244.18,-1000.38"/>
</g>
<!-- sig_o_1 -->
<g id="node17" class="node">
<title>sig_o_1</title>
<path fill="#d1fae5" stroke="#374151" d="M456.37,-1069.5C456.37,-1069.5 392.38,-1069.5 392.38,-1069.5 386.38,-1069.5 380.38,-1063.5 380.38,-1057.5 380.38,-1057.5 380.38,-1045.5 380.38,-1045.5 380.38,-1039.5 386.38,-1033.5 392.38,-1033.5 392.38,-1033.5 456.37,-1033.5 456.37,-1033.5 462.37,-1033.5 468.37,-1039.5 468.37,-1045.5 468.37,-1045.5 468.37,-1057.5 468.37,-1057.5 468.37,-1063.5 462.37,-1069.5 456.37,-1069.5"/>
<text text-anchor="middle" x="424.38" y="-1047.42" font-family="Helvetica,sans-Serif" font-size="11.00">Sigmoid → o_t</text>
</g>
<!-- lin_o_1&#45;&gt;sig_o_1 -->
<g id="edge10" class="edge">
<title>lin_o_1&#45;&gt;sig_o_1</title>
<path fill="none" stroke="black" d="M431.95,-1106.31C430.87,-1098.64 429.57,-1089.39 428.35,-1080.74"/>
<polygon fill="black" stroke="black" points="431.85,-1080.44 426.98,-1071.03 424.91,-1081.42 431.85,-1080.44"/>
</g>
<!-- sig_o_1&#45;&gt;update_1 -->
<g id="edge18" class="edge">
<title>sig_o_1&#45;&gt;update_1</title>
<path fill="none" stroke="black" d="M380,-1036.05C348.52,-1025.79 305.79,-1011.88 270.6,-1000.42"/>
<polygon fill="black" stroke="black" points="271.97,-997.18 261.38,-997.41 269.8,-1003.84 271.97,-997.18"/>
</g>
<!-- h1 -->
<g id="node20" class="node">
<title>h1</title>
<polygon fill="#fef3c7" stroke="#374151" points="224.38,-913.25 142.38,-913.25 142.38,-877.25 230.38,-877.25 230.38,-907.25 224.38,-913.25"/>
<polyline fill="none" stroke="#374151" points="224.38,-913.25 224.38,-907.25"/>
<polyline fill="none" stroke="#374151" points="230.38,-907.25 224.38,-907.25"/>
<text text-anchor="middle" x="186.38" y="-891.17" font-family="Helvetica,sans-Serif" font-size="11.00">h1 ∈ ℝ¹×32</text>
</g>
<!-- update_1&#45;&gt;h1 -->
<g id="edge21" class="edge">
<title>update_1&#45;&gt;h1</title>
<path fill="none" stroke="black" d="M202.13,-960.27C199.61,-950 196.33,-936.7 193.42,-924.89"/>
<polygon fill="black" stroke="black" points="196.83,-924.08 191.04,-915.21 190.03,-925.75 196.83,-924.08"/>
<text text-anchor="middle" x="204.12" y="-933" font-family="Times New Roman,serif" font-size="10.00">h_t</text>
</g>
<!-- dim_1 -->
<g id="node19" class="node">
<title>dim_1</title>
<polygon fill="#fef3c7" stroke="#374151" points="474.75,-1215.5 248,-1215.5 248,-1179.5 480.75,-1179.5 480.75,-1209.5 474.75,-1215.5"/>
<polyline fill="none" stroke="#374151" points="474.75,-1215.5 474.75,-1209.5"/>
<polyline fill="none" stroke="#374151" points="480.75,-1209.5 474.75,-1209.5"/>
<text text-anchor="middle" x="364.38" y="-1193.42" font-family="Helvetica,sans-Serif" font-size="11.00">x, h ∈ ℝ¹×32；concat(x,h) ∈ ℝ¹×(2H)</text>
</g>
<!-- concat_2 -->
<g id="node21" class="node">
<title>concat_2</title>
<path fill="#ecfdf5" stroke="#374151" d="M213.75,-808.25C213.75,-808.25 95,-808.25 95,-808.25 89,-808.25 83,-802.25 83,-796.25 83,-796.25 83,-784.25 83,-784.25 83,-778.25 89,-772.25 95,-772.25 95,-772.25 213.75,-772.25 213.75,-772.25 219.75,-772.25 225.75,-778.25 225.75,-784.25 225.75,-784.25 225.75,-796.25 225.75,-796.25 225.75,-802.25 219.75,-808.25 213.75,-808.25"/>
<text text-anchor="middle" x="154.38" y="-792.55" font-family="Helvetica,sans-Serif" font-size="11.00">concat(x, h) ∈ ℝ¹×(2H)</text>
<text text-anchor="middle" x="154.38" y="-779.8" font-family="Helvetica,sans-Serif" font-size="11.00">(此处 H=32)</text>
</g>
<!-- h1&#45;&gt;concat_2 -->
<g id="edge26" class="edge">
<title>h1&#45;&gt;concat_2</title>
<path fill="none" stroke="black" d="M180.95,-876.78C176.07,-861.07 168.81,-837.72 163.12,-819.39"/>
<polygon fill="black" stroke="black" points="166.48,-818.42 160.17,-809.91 159.8,-820.5 166.48,-818.42"/>
<text text-anchor="middle" x="176.25" y="-849.75" font-family="Times New Roman,serif" font-size="10.00">x</text>
</g>
<!-- h1&#45;&gt;concat_2 -->
<g id="edge27" class="edge">
<title>h1&#45;&gt;concat_2</title>
<path fill="none" stroke="black" d="M171.04,-876.78C167.17,-871.48 163.46,-865.42 161.12,-859.25 156.41,-846.81 154.53,-832.21 153.91,-819.74"/>
<polygon fill="black" stroke="black" points="157.42,-820.01 153.68,-810.09 150.42,-820.17 157.42,-820.01"/>
<text text-anchor="middle" x="163" y="-849.75" font-family="Times New Roman,serif" font-size="10.00">h</text>
</g>
<!-- lin_i_2 -->
<g id="node22" class="node">
<title>lin_i_2</title>
<path fill="#d1fae5" stroke="#374151" d="M126.25,-735.25C126.25,-735.25 58.5,-735.25 58.5,-735.25 52.5,-735.25 46.5,-729.25 46.5,-723.25 46.5,-723.25 46.5,-711.25 46.5,-711.25 46.5,-705.25 52.5,-699.25 58.5,-699.25 58.5,-699.25 126.25,-699.25 126.25,-699.25 132.25,-699.25 138.25,-705.25 138.25,-711.25 138.25,-711.25 138.25,-723.25 138.25,-723.25 138.25,-729.25 132.25,-735.25 126.25,-735.25"/>
<text text-anchor="middle" x="92.38" y="-713.17" font-family="Helvetica,sans-Serif" font-size="11.00">Linear(2H → H)</text>
</g>
<!-- concat_2&#45;&gt;lin_i_2 -->
<g id="edge28" class="edge">
<title>concat_2&#45;&gt;lin_i_2</title>
<path fill="none" stroke="black" d="M139.37,-772.06C131.98,-763.6 122.92,-753.23 114.74,-743.86"/>
<polygon fill="black" stroke="black" points="117.45,-741.65 108.24,-736.42 112.18,-746.25 117.45,-741.65"/>
</g>
<!-- lin_f_2 -->
<g id="node24" class="node">
<title>lin_f_2</title>
<path fill="#d1fae5" stroke="#374151" d="M240.25,-735.25C240.25,-735.25 172.5,-735.25 172.5,-735.25 166.5,-735.25 160.5,-729.25 160.5,-723.25 160.5,-723.25 160.5,-711.25 160.5,-711.25 160.5,-705.25 166.5,-699.25 172.5,-699.25 172.5,-699.25 240.25,-699.25 240.25,-699.25 246.25,-699.25 252.25,-705.25 252.25,-711.25 252.25,-711.25 252.25,-723.25 252.25,-723.25 252.25,-729.25 246.25,-735.25 240.25,-735.25"/>
<text text-anchor="middle" x="206.38" y="-713.17" font-family="Helvetica,sans-Serif" font-size="11.00">Linear(2H → H)</text>
</g>
<!-- concat_2&#45;&gt;lin_f_2 -->
<g id="edge29" class="edge">
<title>concat_2&#45;&gt;lin_f_2</title>
<path fill="none" stroke="black" d="M166.96,-772.06C173.03,-763.78 180.44,-753.66 187.19,-744.44"/>
<polygon fill="black" stroke="black" points="189.92,-746.64 193.01,-736.5 184.28,-742.5 189.92,-746.64"/>
</g>
<!-- lin_c_2 -->
<g id="node26" class="node">
<title>lin_c_2</title>
<path fill="#d1fae5" stroke="#374151" d="M354.25,-735.25C354.25,-735.25 286.5,-735.25 286.5,-735.25 280.5,-735.25 274.5,-729.25 274.5,-723.25 274.5,-723.25 274.5,-711.25 274.5,-711.25 274.5,-705.25 280.5,-699.25 286.5,-699.25 286.5,-699.25 354.25,-699.25 354.25,-699.25 360.25,-699.25 366.25,-705.25 366.25,-711.25 366.25,-711.25 366.25,-723.25 366.25,-723.25 366.25,-729.25 360.25,-735.25 354.25,-735.25"/>
<text text-anchor="middle" x="320.38" y="-713.17" font-family="Helvetica,sans-Serif" font-size="11.00">Linear(2H → H)</text>
</g>
<!-- concat_2&#45;&gt;lin_c_2 -->
<g id="edge30" class="edge">
<title>concat_2&#45;&gt;lin_c_2</title>
<path fill="none" stroke="black" d="M194.98,-771.88C217.39,-762.3 245.43,-750.3 269.31,-740.09"/>
<polygon fill="black" stroke="black" points="270.4,-743.43 278.22,-736.28 267.65,-737 270.4,-743.43"/>
</g>
<!-- lin_o_2 -->
<g id="node28" class="node">
<title>lin_o_2</title>
<path fill="#d1fae5" stroke="#374151" d="M468.25,-735.25C468.25,-735.25 400.5,-735.25 400.5,-735.25 394.5,-735.25 388.5,-729.25 388.5,-723.25 388.5,-723.25 388.5,-711.25 388.5,-711.25 388.5,-705.25 394.5,-699.25 400.5,-699.25 400.5,-699.25 468.25,-699.25 468.25,-699.25 474.25,-699.25 480.25,-705.25 480.25,-711.25 480.25,-711.25 480.25,-723.25 480.25,-723.25 480.25,-729.25 474.25,-735.25 468.25,-735.25"/>
<text text-anchor="middle" x="434.38" y="-713.17" font-family="Helvetica,sans-Serif" font-size="11.00">Linear(2H → H)</text>
</g>
<!-- concat_2&#45;&gt;lin_o_2 -->
<g id="edge31" class="edge">
<title>concat_2&#45;&gt;lin_o_2</title>
<path fill="none" stroke="black" d="M226.17,-772.87C267.35,-763.24 320.23,-750.48 377.05,-735.25"/>
<polygon fill="black" stroke="black" points="377.88,-738.65 386.62,-732.67 376.05,-731.9 377.88,-738.65"/>
</g>
<!-- sig_i_2 -->
<g id="node23" class="node">
<title>sig_i_2</title>
<path fill="#d1fae5" stroke="#374151" d="M126.5,-662.25C126.5,-662.25 66.25,-662.25 66.25,-662.25 60.25,-662.25 54.25,-656.25 54.25,-650.25 54.25,-650.25 54.25,-638.25 54.25,-638.25 54.25,-632.25 60.25,-626.25 66.25,-626.25 66.25,-626.25 126.5,-626.25 126.5,-626.25 132.5,-626.25 138.5,-632.25 138.5,-638.25 138.5,-638.25 138.5,-650.25 138.5,-650.25 138.5,-656.25 132.5,-662.25 126.5,-662.25"/>
<text text-anchor="middle" x="96.38" y="-640.17" font-family="Helvetica,sans-Serif" font-size="11.00">Sigmoid → i_t</text>
</g>
<!-- lin_i_2&#45;&gt;sig_i_2 -->
<g id="edge22" class="edge">
<title>lin_i_2&#45;&gt;sig_i_2</title>
<path fill="none" stroke="black" d="M93.34,-699.06C93.78,-691.39 94.3,-682.14 94.78,-673.49"/>
<polygon fill="black" stroke="black" points="98.26,-673.97 95.33,-663.79 91.27,-673.58 98.26,-673.97"/>
</g>
<!-- update_2 -->
<g id="node30" class="node">
<title>update_2</title>
<path fill="#ecfdf5" stroke="#374151" d="M302.12,-589.25C302.12,-589.25 110.62,-589.25 110.62,-589.25 104.62,-589.25 98.62,-583.25 98.62,-577.25 98.62,-577.25 98.62,-565.25 98.62,-565.25 98.62,-559.25 104.62,-553.25 110.62,-553.25 110.62,-553.25 302.12,-553.25 302.12,-553.25 308.12,-553.25 314.12,-559.25 314.12,-565.25 314.12,-565.25 314.12,-577.25 314.12,-577.25 314.12,-583.25 308.12,-589.25 302.12,-589.25"/>
<text text-anchor="middle" x="206.38" y="-573.55" font-family="Helvetica,sans-Serif" font-size="11.00">更新：h_t = o_t ⊙ tanh(c̃_t)</text>
<text text-anchor="middle" x="206.38" y="-560.8" font-family="Helvetica,sans-Serif" font-size="11.00">(i_t, f_t 在当前实现中未参与 h_t)</text>
</g>
<!-- sig_i_2&#45;&gt;update_2 -->
<g id="edge34" class="edge">
<title>sig_i_2&#45;&gt;update_2</title>
<path fill="none" stroke="#9ca3af" stroke-dasharray="5,2" d="M123.28,-625.88C137.27,-616.86 154.56,-605.69 169.75,-595.89"/>
<polygon fill="#9ca3af" stroke="#9ca3af" points="171.59,-598.87 178.09,-590.51 167.79,-592.99 171.59,-598.87"/>
</g>
<!-- sig_f_2 -->
<g id="node25" class="node">
<title>sig_f_2</title>
<path fill="#d1fae5" stroke="#374151" d="M236.87,-662.25C236.87,-662.25 175.88,-662.25 175.88,-662.25 169.88,-662.25 163.88,-656.25 163.88,-650.25 163.88,-650.25 163.88,-638.25 163.88,-638.25 163.88,-632.25 169.88,-626.25 175.88,-626.25 175.88,-626.25 236.87,-626.25 236.87,-626.25 242.87,-626.25 248.87,-632.25 248.87,-638.25 248.87,-638.25 248.87,-650.25 248.87,-650.25 248.87,-656.25 242.87,-662.25 236.87,-662.25"/>
<text text-anchor="middle" x="206.38" y="-640.17" font-family="Helvetica,sans-Serif" font-size="11.00">Sigmoid → f_t</text>
</g>
<!-- lin_f_2&#45;&gt;sig_f_2 -->
<g id="edge23" class="edge">
<title>lin_f_2&#45;&gt;sig_f_2</title>
<path fill="none" stroke="black" d="M206.38,-699.06C206.38,-691.48 206.38,-682.35 206.38,-673.79"/>
<polygon fill="black" stroke="black" points="209.88,-673.79 206.38,-663.79 202.88,-673.79 209.88,-673.79"/>
</g>
<!-- sig_f_2&#45;&gt;update_2 -->
<g id="edge35" class="edge">
<title>sig_f_2&#45;&gt;update_2</title>
<path fill="none" stroke="#9ca3af" stroke-dasharray="5,2" d="M206.38,-626.06C206.38,-618.48 206.38,-609.35 206.38,-600.79"/>
<polygon fill="#9ca3af" stroke="#9ca3af" points="209.88,-600.79 206.38,-590.79 202.88,-600.79 209.88,-600.79"/>
</g>
<!-- tanh_c_2 -->
<g id="node27" class="node">
<title>tanh_c_2</title>
<path fill="#d1fae5" stroke="#374151" d="M337.25,-662.25C337.25,-662.25 289.5,-662.25 289.5,-662.25 283.5,-662.25 277.5,-656.25 277.5,-650.25 277.5,-650.25 277.5,-638.25 277.5,-638.25 277.5,-632.25 283.5,-626.25 289.5,-626.25 289.5,-626.25 337.25,-626.25 337.25,-626.25 343.25,-626.25 349.25,-632.25 349.25,-638.25 349.25,-638.25 349.25,-650.25 349.25,-650.25 349.25,-656.25 343.25,-662.25 337.25,-662.25"/>
<text text-anchor="middle" x="313.38" y="-640.17" font-family="Helvetica,sans-Serif" font-size="11.00">Tanh → c̃_t</text>
</g>
<!-- lin_c_2&#45;&gt;tanh_c_2 -->
<g id="edge24" class="edge">
<title>lin_c_2&#45;&gt;tanh_c_2</title>
<path fill="none" stroke="black" d="M318.68,-699.06C317.92,-691.39 317.01,-682.14 316.16,-673.49"/>
<polygon fill="black" stroke="black" points="319.67,-673.39 315.2,-663.79 312.7,-674.08 319.67,-673.39"/>
</g>
<!-- tanh_c_2&#45;&gt;update_2 -->
<g id="edge32" class="edge">
<title>tanh_c_2&#45;&gt;update_2</title>
<path fill="none" stroke="black" d="M287.2,-625.88C273.6,-616.86 256.78,-605.69 242.01,-595.89"/>
<polygon fill="black" stroke="black" points="244.18,-593.13 233.91,-590.52 240.31,-598.97 244.18,-593.13"/>
</g>
<!-- sig_o_2 -->
<g id="node29" class="node">
<title>sig_o_2</title>
<path fill="#d1fae5" stroke="#374151" d="M456.37,-662.25C456.37,-662.25 392.38,-662.25 392.38,-662.25 386.38,-662.25 380.38,-656.25 380.38,-650.25 380.38,-650.25 380.38,-638.25 380.38,-638.25 380.38,-632.25 386.38,-626.25 392.38,-626.25 392.38,-626.25 456.37,-626.25 456.37,-626.25 462.37,-626.25 468.37,-632.25 468.37,-638.25 468.37,-638.25 468.37,-650.25 468.37,-650.25 468.37,-656.25 462.37,-662.25 456.37,-662.25"/>
<text text-anchor="middle" x="424.38" y="-640.17" font-family="Helvetica,sans-Serif" font-size="11.00">Sigmoid → o_t</text>
</g>
<!-- lin_o_2&#45;&gt;sig_o_2 -->
<g id="edge25" class="edge">
<title>lin_o_2&#45;&gt;sig_o_2</title>
<path fill="none" stroke="black" d="M431.95,-699.06C430.87,-691.39 429.57,-682.14 428.35,-673.49"/>
<polygon fill="black" stroke="black" points="431.85,-673.19 426.98,-663.78 424.91,-674.17 431.85,-673.19"/>
</g>
<!-- sig_o_2&#45;&gt;update_2 -->
<g id="edge33" class="edge">
<title>sig_o_2&#45;&gt;update_2</title>
<path fill="none" stroke="black" d="M380,-628.8C348.52,-618.54 305.79,-604.63 270.6,-593.17"/>
<polygon fill="black" stroke="black" points="271.97,-589.93 261.38,-590.16 269.8,-596.59 271.97,-589.93"/>
</g>
<!-- h2 -->
<g id="node32" class="node">
<title>h2</title>
<polygon fill="#fef3c7" stroke="#374151" points="237.38,-506 155.38,-506 155.38,-470 243.38,-470 243.38,-500 237.38,-506"/>
<polyline fill="none" stroke="#374151" points="237.38,-506 237.38,-500"/>
<polyline fill="none" stroke="#374151" points="243.38,-500 237.38,-500"/>
<text text-anchor="middle" x="199.38" y="-483.93" font-family="Helvetica,sans-Serif" font-size="11.00">h2 ∈ ℝ¹×32</text>
</g>
<!-- update_2&#45;&gt;h2 -->
<g id="edge36" class="edge">
<title>update_2&#45;&gt;h2</title>
<path fill="none" stroke="black" d="M204.89,-553.02C204.01,-542.75 202.86,-529.45 201.84,-517.64"/>
<polygon fill="black" stroke="black" points="205.36,-517.66 201.01,-507.99 198.38,-518.26 205.36,-517.66"/>
<text text-anchor="middle" x="209.12" y="-525.75" font-family="Times New Roman,serif" font-size="10.00">h_t</text>
</g>
<!-- dim_2 -->
<g id="node31" class="node">
<title>dim_2</title>
<polygon fill="#fef3c7" stroke="#374151" points="474.75,-808.25 248,-808.25 248,-772.25 480.75,-772.25 480.75,-802.25 474.75,-808.25"/>
<polyline fill="none" stroke="#374151" points="474.75,-808.25 474.75,-802.25"/>
<polyline fill="none" stroke="#374151" points="480.75,-802.25 474.75,-802.25"/>
<text text-anchor="middle" x="364.38" y="-786.17" font-family="Helvetica,sans-Serif" font-size="11.00">x, h ∈ ℝ¹×32；concat(x,h) ∈ ℝ¹×(2H)</text>
</g>
<!-- lin_out -->
<g id="node33" class="node">
<title>lin_out</title>
<path fill="#e0f2fe" stroke="#374151" d="M185.75,-411.25C185.75,-411.25 121,-411.25 121,-411.25 115,-411.25 109,-405.25 109,-399.25 109,-399.25 109,-387.25 109,-387.25 109,-381.25 115,-375.25 121,-375.25 121,-375.25 185.75,-375.25 185.75,-375.25 191.75,-375.25 197.75,-381.25 197.75,-387.25 197.75,-387.25 197.75,-399.25 197.75,-399.25 197.75,-405.25 191.75,-411.25 185.75,-411.25"/>
<text text-anchor="middle" x="153.38" y="-389.18" font-family="Helvetica,sans-Serif" font-size="11.00">Linear(32 → 4)</text>
</g>
<!-- h2&#45;&gt;lin_out -->
<g id="edge39" class="edge">
<title>h2&#45;&gt;lin_out</title>
<path fill="none" stroke="black" d="M190.72,-469.55C184.04,-456.08 174.67,-437.18 166.98,-421.69"/>
<polygon fill="black" stroke="black" points="170.24,-420.38 162.66,-412.97 163.97,-423.49 170.24,-420.38"/>
</g>
<!-- sig_out -->
<g id="node34" class="node">
<title>sig_out</title>
<path fill="#e0f2fe" stroke="#374151" d="M169.25,-338.25C169.25,-338.25 137.5,-338.25 137.5,-338.25 131.5,-338.25 125.5,-332.25 125.5,-326.25 125.5,-326.25 125.5,-314.25 125.5,-314.25 125.5,-308.25 131.5,-302.25 137.5,-302.25 137.5,-302.25 169.25,-302.25 169.25,-302.25 175.25,-302.25 181.25,-308.25 181.25,-314.25 181.25,-314.25 181.25,-326.25 181.25,-326.25 181.25,-332.25 175.25,-338.25 169.25,-338.25"/>
<text text-anchor="middle" x="153.38" y="-316.18" font-family="Helvetica,sans-Serif" font-size="11.00">Sigmoid</text>
</g>
<!-- lin_out&#45;&gt;sig_out -->
<g id="edge37" class="edge">
<title>lin_out&#45;&gt;sig_out</title>
<path fill="none" stroke="black" d="M153.38,-375.06C153.38,-367.48 153.38,-358.35 153.38,-349.79"/>
<polygon fill="black" stroke="black" points="156.88,-349.79 153.38,-339.79 149.88,-349.79 156.88,-349.79"/>
</g>
<!-- drop_out -->
<g id="node35" class="node">
<title>drop_out</title>
<path fill="#e0f2fe" stroke="#374151" d="M186.5,-265.25C186.5,-265.25 120.25,-265.25 120.25,-265.25 114.25,-265.25 108.25,-259.25 108.25,-253.25 108.25,-253.25 108.25,-241.25 108.25,-241.25 108.25,-235.25 114.25,-229.25 120.25,-229.25 120.25,-229.25 186.5,-229.25 186.5,-229.25 192.5,-229.25 198.5,-235.25 198.5,-241.25 198.5,-241.25 198.5,-253.25 198.5,-253.25 198.5,-259.25 192.5,-265.25 186.5,-265.25"/>
<text text-anchor="middle" x="153.38" y="-243.18" font-family="Helvetica,sans-Serif" font-size="11.00">Dropout(p=0.1)</text>
</g>
<!-- sig_out&#45;&gt;drop_out -->
<g id="edge38" class="edge">
<title>sig_out&#45;&gt;drop_out</title>
<path fill="none" stroke="black" d="M153.38,-302.06C153.38,-294.48 153.38,-285.35 153.38,-276.79"/>
<polygon fill="black" stroke="black" points="156.88,-276.79 153.38,-266.79 149.88,-276.79 156.88,-276.79"/>
</g>
<!-- net_out -->
<g id="node36" class="node">
<title>net_out</title>
<polygon fill="#fef3c7" stroke="#374151" points="178.5,-192.25 76.25,-192.25 76.25,-156.25 184.5,-156.25 184.5,-186.25 178.5,-192.25"/>
<polyline fill="none" stroke="#374151" points="178.5,-192.25 178.5,-186.25"/>
<polyline fill="none" stroke="#374151" points="184.5,-186.25 178.5,-186.25"/>
<text text-anchor="middle" x="130.38" y="-170.18" font-family="Helvetica,sans-Serif" font-size="11.00">net_output ∈ ℝ⁴</text>
</g>
<!-- drop_out&#45;&gt;net_out -->
<g id="edge40" class="edge">
<title>drop_out&#45;&gt;net_out</title>
<path fill="none" stroke="black" d="M147.81,-229.06C145.29,-221.3 142.26,-211.93 139.43,-203.2"/>
<polygon fill="black" stroke="black" points="142.77,-202.15 136.36,-193.72 136.11,-204.31 142.77,-202.15"/>
</g>
<!-- net_out&#45;&gt;ode -->
<g id="edge43" class="edge">
<title>net_out&#45;&gt;ode</title>
<path fill="none" stroke="black" d="M130.38,-155.98C130.38,-148.56 130.38,-139.62 130.38,-130.97"/>
<polygon fill="black" stroke="black" points="133.88,-131.05 130.38,-121.05 126.88,-131.05 133.88,-131.05"/>
</g>
<!-- Aparam -->
<g id="node37" class="node">
<title>Aparam</title>
<ellipse fill="#fae8ff" stroke="#7c3aed" cx="313.38" cy="-174.25" rx="106.62" ry="18"/>
<text text-anchor="middle" x="313.38" y="-170.18" font-family="Helvetica,sans-Serif" font-size="11.00">A ∈ ℝ⁴（可学习参数）</text>
</g>
<!-- Aparam&#45;&gt;ode -->
<g id="edge42" class="edge">
<title>Aparam&#45;&gt;ode</title>
<path fill="none" stroke="black" d="M274.57,-157.11C251.5,-147.51 221.66,-135.1 195.12,-124.06"/>
<polygon fill="black" stroke="black" points="196.72,-120.93 186.14,-120.32 194.03,-127.4 196.72,-120.93"/>
</g>
<!-- dy -->
<g id="node39" class="node">
<title>dy</title>
<polygon fill="#e5e7eb" stroke="#374151" points="214.5,-36 46.25,-36 46.25,-32 42.25,-32 42.25,-28 46.25,-28 46.25,-8 42.25,-8 42.25,-4 46.25,-4 46.25,0 214.5,0 214.5,-36"/>
<polyline fill="none" stroke="#374151" points="46.25,-32 50.25,-32 50.25,-28 46.25,-28"/>
<polyline fill="none" stroke="#374151" points="46.25,-8 50.25,-8 50.25,-4 46.25,-4"/>
<text text-anchor="middle" x="130.38" y="-13.93" font-family="Helvetica,sans-Serif" font-size="11.00">输出：f(y, s) = dy/dt ∈ ℝ⁴</text>
</g>
<!-- ode&#45;&gt;dy -->
<g id="edge44" class="edge">
<title>ode&#45;&gt;dy</title>
<path fill="none" stroke="black" d="M130.38,-72.7C130.38,-64.92 130.38,-56.08 130.38,-47.86"/>
<polygon fill="black" stroke="black" points="133.88,-47.95 130.38,-37.95 126.88,-47.95 133.88,-47.95"/>
</g>
</g>
</svg>
